<svg width="1440" height="1687" viewBox="0 0 1440 1687" fill="none" xmlns="http://www.w3.org/2000/svg">
<mask id="mask0_39_2" style="mask-type:alpha" maskUnits="userSpaceOnUse" x="0" y="0" width="1440" height="1687">
<path d="M1440 0H0V1589C562.357 1722.26 877.642 1716.26 1440 1589V0Z" fill="#0C0C0C"/>
</mask>
<g mask="url(#mask0_39_2)">
<g opacity="0.12">
<path fill-rule="evenodd" clip-rule="evenodd" d="M595.923 2258.11C567.759 2258.23 536.089 2307.92 519.761 2329.14C487.466 2371.1 457.644 2414.74 427.345 2457.98C397.046 2501.22 366.83 2544.57 333.566 2585.8C311.973 2612.57 287.654 2644.03 256.821 2662.18C191.115 2700.86 200.872 2578.91 199.435 2547.33C195.764 2466.97 197.439 2374.8 163.223 2299.47C142.796 2254.51 108.539 2236.58 58.6103 2246.23C42.3726 2249.35 23.6874 2258.56 7.86866 2250.76C-9.02604 2242.42 -18.7751 2223.25 -25.3129 2207.33C-49.1314 2149.28 -51.8911 2082.54 -54.8807 2021.13C-58.1661 1954.9 -57.2051 1888.05 -57.4597 1822.29C-57.5665 1794.41 -68.137 1765.29 -76.7281 1738.74C-87.9885 1703.93 -100.637 1669.53 -112.866 1635.01C-139.707 1559.06 -167.978 1480.8 -174.795 1400.45C-179.065 1350.13 -173.291 1295.14 -136.143 1256.05C-117.491 1236.42 -89.7625 1226.15 -65.1309 1214.8C-35.3742 1201.06 -5.33011 1187.87 23.9584 1173.25C118.288 1126.15 210.465 1058.89 215.098 949.732C215.796 933.218 213.521 917 213.094 900.564C212.831 890.097 215.5 880.782 227.056 876.89C256.041 867.108 301.797 897.856 324.794 910.463C375.133 938.066 423.214 969.195 472.543 998.355C505.166 1017.65 549.748 1051.04 589.385 1051.39C624.702 1051.7 650.229 1007.19 667.625 982.954C683.911 960.245 706.703 919.101 739.836 916.611C755.901 915.404 769.215 925.443 779.547 935.926C797.616 954.3 810.363 975.467 830.978 991.997C864.801 1019.1 911.337 1041.75 956.912 1038.07C988.492 1035.51 1009.17 1018.44 1028.94 996.72C1037.25 987.592 1043.14 980.183 1056.63 979.701C1078.06 978.922 1100.74 986.876 1120.6 993.428C1191.71 1016.87 1260.46 1050.16 1324.65 1087.2C1356.73 1105.7 1388.72 1125.69 1416.08 1150.23C1434.05 1166.3 1455.44 1187.98 1455.42 1212.49C1455.42 1240.87 1444.61 1270.9 1436.53 1298.49C1421.42 1350.02 1403.96 1400.92 1386.05 1451.62C1344.6 1568.87 1299.8 1685.02 1251.65 1800.07C1217.67 1881.1 1183.64 1963.86 1138.47 2040.05C1129.6 2054.9 1119.25 2068.93 1107.58 2081.93C1095.31 2095.82 1089.83 2113.06 1085.74 2130.54C1060.35 2239.02 1079.84 2357.87 1092.06 2466.8C1095.16 2494.45 1098.27 2522.1 1100.44 2549.83C1102.3 2573.67 1107.65 2602.21 1099.62 2625.37C1083.81 2671.02 1025.53 2631.12 1001.79 2614.25C918.187 2554.84 847.454 2478.21 775.243 2407.17C740.854 2373.39 706.555 2339.36 670.22 2307.43C651.329 2290.79 620.612 2258 595.923 2258.11Z" stroke="white"/>
<path fill-rule="evenodd" clip-rule="evenodd" d="M591.175 2237.64C561.374 2255.85 539.347 2287.79 518.618 2314.31C488.776 2352.47 460.592 2391.82 431.595 2430.59C404.175 2467.25 376.443 2503.98 345.304 2537.93C326.315 2558.63 303.607 2584.6 275.522 2594.4C214.647 2615.67 223.883 2501.25 222.291 2473.01C218.35 2402.79 217.447 2323.18 185.396 2258.21C165.381 2217.65 132.19 2200.98 86.1089 2209.64C70.1658 2212.63 56.5542 2218.02 40.6932 2211.19C22.3364 2203.3 10.8921 2185.16 2.81384 2168.53C-22.4965 2116.42 -27.8738 2054.83 -32.348 1998.35C-36.9701 1939.99 -40.2294 1879.2 -36.847 1822.72C-35.5006 1800.14 -43.1438 1774.14 -49.0055 1751.79C-58.0361 1717.4 -68.4541 1683.36 -78.1415 1649.15C-97.8447 1579.6 -116.825 1508.25 -118.984 1435.91C-120.544 1383.68 -112.088 1329.22 -79.4058 1285.76C-46.2635 1241.73 5.11246 1222.19 53.9517 1197.77C138.388 1155.59 241.05 1098.62 258.889 1001.05C261.598 986.25 260.129 972.03 260.794 957.249C261.13 949.648 262.198 940.996 270.103 937.142C290.628 927.135 328.154 954.555 343.875 963.783C387.321 989.279 428.64 1017.94 471.248 1044.66C505.08 1065.88 542.672 1092.78 582.776 1100.99C631.443 1110.95 666.071 1045.87 700.338 1022.98C759.76 983.306 793.616 1058.48 821.948 1095.54C854.474 1138.1 913.814 1173.23 964.139 1135.08C983.382 1120.48 994.851 1102.52 1019.96 1096.01C1059.24 1085.81 1104.12 1093.52 1142.94 1101.79C1201.31 1114.25 1259.04 1133.97 1311.78 1160.78C1349.55 1179.98 1408.76 1211.84 1404.32 1258.49C1401.36 1289.9 1390.53 1321.83 1380.96 1352.41C1366.63 1398.2 1350.3 1443.42 1333.34 1488.39C1294.3 1592.2 1251.25 1694.87 1203.89 1795.53C1171.57 1864.21 1039.49 2055.78 1034.77 2070.19C1020.74 2113.17 1023.21 2162.04 1025.38 2206.35C1028.27 2265.29 1035.76 2323.94 1042.7 2382.54C1045.98 2410.44 1050 2438.47 1051.61 2466.51C1052.76 2486.47 1053.75 2512.69 1041.51 2530.17C1017.62 2564.29 962.981 2526.28 939.863 2510.55C868.989 2462.39 807.614 2401.46 744.859 2344.33C714.048 2316.29 683.287 2287.83 650.005 2262.38C636.566 2252.12 609.581 2226.39 591.175 2237.64Z" stroke="white"/>
<path fill-rule="evenodd" clip-rule="evenodd" d="M575.891 2212.45C516.256 2262.17 471.903 2330.8 422.098 2390.03C397.093 2419.76 371.406 2449.68 341.621 2475.32C326.133 2488.66 306.548 2505.31 284.958 2507.88C227.204 2514.75 235.013 2411.63 232.821 2380.76C228.567 2321.09 225.34 2253.67 195.867 2199.53C177.85 2166.46 148.279 2150.17 109.412 2156.35C92.1666 2159.09 77.5166 2163.36 60.5835 2156.35C43.4288 2149.25 31.3244 2134.45 22.2502 2119.47C-3.84738 2076.42 -12.1908 2022.92 -18.4072 1974.45C-25.6478 1917.59 -28.4748 1860.3 -26.8655 1803.05C-25.4777 1752.91 -41.0887 1703 -51.3782 1654.04C-65.0019 1589.18 -76.9009 1523.15 -75.1025 1456.78C-73.6736 1404.36 -62.4479 1351.53 -32.6139 1306.72C-2.22975 1261.18 43.248 1233.81 92.3226 1209.12C166.509 1171.81 265.923 1125.31 294.098 1043.45C298.204 1031.55 298.656 1020.45 299.37 1008.17C299.715 1002.21 299.822 994.508 306.383 991.549C322.183 984.432 352.814 1010.74 363.489 1018.08C397.569 1041.52 430.113 1066.93 463.741 1090.95C495.135 1113.37 527.851 1137.8 564.641 1151.73C623.233 1173.9 657.493 1103.03 713.326 1105.01C747.989 1106.25 772.847 1137.71 790.042 1162.63C811.188 1193.31 825.091 1237.48 863.679 1252.84C892.421 1264.27 909.148 1246.33 930.959 1232.51C967.913 1209.08 1018.01 1207.49 1060.78 1209.93C1118.59 1213.21 1177.24 1226.05 1230.38 1247.91C1254.46 1257.81 1279.52 1269.94 1298.22 1287.8C1315.75 1304.54 1320.25 1320.37 1316.66 1342.74C1305.65 1411.19 1274.98 1480.31 1247.59 1545.96C1213.16 1628.44 1175.16 1709.79 1132.4 1788.7C1103.24 1842.51 1072.39 1897.54 1032.1 1944.77C1021.59 1957.08 1010.18 1969.69 996.326 1978.69C985.914 1985.49 977.316 1988.38 971.37 1999.85C953.756 2033.85 958.363 2081.13 960.194 2117.56C963.109 2175.8 970.869 2233.76 977.858 2291.65C981.964 2325.42 994.881 2389.05 963.897 2416.03C937.143 2439.31 891.526 2411.21 867.957 2396.86C808.355 2360.56 756.045 2313.87 702.183 2270.54C677.498 2250.69 652.624 2230.06 625.179 2213.66C618.183 2209.47 608.912 2202.76 600.412 2201.6C590.673 2200.31 583.241 2206.35 575.891 2212.45Z" stroke="white"/>
<path fill-rule="evenodd" clip-rule="evenodd" d="M589.774 2208.18C537.046 2254.12 493.727 2309.48 444.385 2358.8C422.261 2380.92 399.053 2403.25 372.064 2420.11C357.55 2429.17 339.281 2438.8 321.242 2436.3C269.467 2429.12 274.143 2344.31 271.111 2310.04C266.656 2259.13 262.169 2200.64 234.252 2155.62C215.966 2126.13 188.961 2115.07 154.132 2120.57C116.772 2126.48 89.6513 2113.27 68.8098 2083.19C42.7004 2045.49 32.0577 1997.89 24.4969 1954.11C15.4311 1901.36 11.4124 1847.94 12.49 1794.51C13.5419 1742.54 4.35388 1692.2 -1.6208 1640.57C-9.53499 1572.13 -13.4387 1501.49 2.78418 1433.82C16.9114 1374.89 48.0422 1321.67 96.1848 1281.78C146.431 1240.11 209.737 1219.48 265.325 1185.64C299.998 1164.54 345.864 1135.11 359.342 1095.67C363.837 1082.52 357.772 1058.55 379.888 1069.06C392.536 1075.06 403.63 1086.3 413.969 1095.17C430.677 1109.52 446.924 1124.34 463.402 1138.93C498.527 1170.01 534.399 1203.3 575.992 1226.6C628.359 1255.96 668.661 1212.32 721.759 1217.64C750.334 1220.5 773.14 1239.33 791.056 1259.25C802.66 1272.14 812.711 1286.24 822.088 1300.64C831.884 1315.68 839.346 1333.47 852.011 1346.59C870.033 1365.28 891.368 1357.16 914.667 1353.66C955.612 1347.49 997.204 1346.14 1038.5 1349.62C1089.12 1353.89 1141.18 1363.9 1187.18 1384.98C1205.08 1393.18 1224.07 1403.57 1236.08 1419C1248.08 1434.42 1247.26 1450.38 1243.64 1468.06C1232.96 1520.49 1208.1 1572.81 1184.54 1622.55C1155.04 1684.81 1122.08 1745.84 1084.58 1804.12C1058.69 1844.35 1030.73 1884.71 995.625 1918.37C985.41 1928.16 974.471 1937.47 962.259 1945C953.884 1950.18 943.077 1952.95 936.782 1960.44C917.132 1983.88 923 2030.94 924.143 2058.43C926.419 2113.29 937.243 2167.29 939.872 2222.08C941.311 2251.99 944.927 2298.82 918.061 2320.78C892.806 2341.44 853.03 2322.73 828.696 2310.39C780.849 2286.13 738.221 2253.54 693.743 2224.33C675.441 2212.32 656.293 2199.16 635.394 2191.38C616.771 2184.46 603.293 2196.4 589.774 2208.18Z" stroke="white"/>
<path fill-rule="evenodd" clip-rule="evenodd" d="M590.636 2196.87C544.237 2233.45 503.048 2277.54 455.894 2314.37C428.279 2335.93 381.855 2373.07 342.923 2356.39C300.143 2338.1 298.978 2274.33 295.531 2237.47C291.428 2193.6 285.823 2142.08 259.111 2104.53C250.666 2092.66 239.489 2082.55 224.766 2078.26C209.01 2073.67 195.223 2078.69 179.45 2079.34C146.362 2080.71 119.797 2061.99 101.554 2037.21C75.7611 2002.2 63.5662 1958.41 55.0643 1917.05C45.475 1870.2 40.7474 1822.56 40.9491 1774.84C41.1133 1729.22 40.0464 1684.09 38.8155 1638.43C37.1742 1578.72 39.8248 1518.16 56.5579 1460.24C73.0529 1403.18 103.967 1351.3 149.439 1310.55C193.811 1270.8 248.048 1243.98 303.294 1220.48C334.651 1207.15 381.51 1184.64 397.349 1152.84C404.398 1138.7 403.914 1124.83 422.247 1139.86C445.332 1158.79 463.854 1184.31 483.599 1206.24C512.092 1237.87 541.143 1270.29 575.019 1296.84C596.652 1313.8 617.644 1321.35 645.653 1320.18C666.989 1319.28 688.105 1315.19 709.524 1317.26C759.797 1322.11 794.272 1359.64 826.376 1392.81C847.023 1414.16 862.772 1433.65 892.143 1444.64C926.856 1457.63 964.622 1463.09 1000.67 1471.77C1040.25 1481.31 1081.42 1492.33 1116.28 1513.15C1147.32 1531.69 1161.23 1554.23 1152.87 1587.97C1139.84 1640.59 1107.74 1692.46 1078.04 1739.18C1047.82 1786.73 1013.84 1833.47 972.312 1872.87C949.884 1894.15 923.549 1908.67 899.455 1927.56C869.206 1951.32 880.662 2005.08 883.222 2037.03C887.473 2090.07 919.282 2256.95 816.257 2241.55C773.255 2235.13 733.569 2209.82 695.622 2191.3C679.874 2183.63 660.974 2172.53 642.928 2170.79C623.273 2168.9 604.604 2185.88 590.636 2196.87Z" stroke="white"/>
<path fill-rule="evenodd" clip-rule="evenodd" d="M594.576 2177.57C552.529 2205.51 512.805 2238.96 467.392 2262.94C437.981 2278.5 398.684 2293.77 367.565 2273.71C332.448 2251.06 324.261 2201.11 319.787 2164.41C315.18 2126.6 311.305 2081.46 284.677 2050.56C276.196 2040.73 264.758 2032.62 251.062 2031.12C237.925 2029.66 224.788 2033.77 211.413 2032.41C181.378 2029.36 156.63 2012.1 138.682 1989.84C85.5826 1924.02 73.7755 1826.04 72.3879 1746.62C71.6982 1706.86 75.3191 1665.95 77.9137 1625.94C81.2802 1574.02 88.5056 1522.02 105.921 1472.5C142.935 1367.22 225.026 1296.66 327.176 1247.37C359.33 1231.86 394.119 1219.99 419.958 1195.69C433.3 1183.16 442.882 1185.89 455.051 1198.7C474.067 1218.73 488.6 1243.16 504.471 1265.4C527.043 1297.01 549.951 1329.31 576.989 1357.27C595.627 1376.55 613.584 1390.23 641.534 1394.38C661.461 1397.35 681.766 1396.65 701.817 1398.44C739.907 1401.83 777.709 1413.44 809.304 1434C834.347 1450.33 857.107 1469.78 878.808 1489.88C907.062 1516 935.766 1538.1 969.299 1557.95C1013.69 1584.25 1095.56 1621.21 1073.9 1683.18C1049.99 1751.52 989.235 1815.57 930.372 1859.42C910.609 1874.14 886.371 1886.23 871.796 1906.09C850.013 1935.82 850.777 1965.98 850.867 2001.34C850.99 2054.28 863.118 2169.48 779.434 2170.72C746.278 2171.21 714.93 2157.61 683.039 2151.1C647.322 2143.76 623.232 2158.48 594.576 2177.57Z" stroke="white"/>
<path fill-rule="evenodd" clip-rule="evenodd" d="M598.325 2156.75C543.524 2184.39 453.474 2246.38 392.535 2199.24C360.33 2174.33 348.228 2130.28 341.016 2093.33C335.182 2063.59 332.991 2027.73 308.261 2005.26C290.079 1988.75 263.618 1996.08 240.857 1989.75C212.64 1981.9 189.551 1963.87 172.197 1941.72C123.697 1879.83 108.813 1793.77 105.646 1719.31C102.364 1641.98 117.716 1556.78 147.246 1484.01C184.078 1393.28 253.821 1325.31 342.14 1277.77C358.443 1269 375.173 1261.03 391.673 1252.61C402.742 1246.95 413.449 1238.57 425.092 1234.11C444.506 1226.68 460.374 1235.43 473.026 1249.45C491.241 1269.63 504.205 1294.41 517.875 1317.4C536.582 1348.85 554.953 1381 576.902 1410.26C591.671 1429.92 607.58 1450.49 633.205 1457.53C650.681 1462.33 669.192 1463.33 687.292 1463.16C726.102 1462.78 757.486 1464.71 793.03 1481.88C851.385 1510.13 903.856 1553.57 947.515 1599.47C981.779 1635.49 1035 1692.48 1012.1 1744.96C991.584 1792.04 942.485 1819.58 902.789 1850.61C883.491 1865.69 865.866 1882.63 852.139 1902.54C834.835 1927.64 827.574 1951.27 824.743 1981C819.976 2031.05 818.737 2106.52 755.394 2121.99C732.018 2127.71 707.805 2124.44 684.125 2127.44C652.815 2131.36 625.968 2142.8 598.325 2156.75Z" stroke="white"/>
<path fill-rule="evenodd" clip-rule="evenodd" d="M600.355 2128C540.391 2147.69 464.821 2173.55 411.528 2126.01C385.711 2102.98 371.278 2070.58 360.493 2039.23C352.764 2016.78 350.488 1981.13 326.725 1967.36C309.237 1957.25 285.112 1955.85 266.376 1946.7C240.616 1934.13 219.399 1915.09 202.79 1892.76C159.509 1834.57 142.785 1758.77 137.996 1689.66C127.606 1539.47 210.363 1386.66 346.521 1306.29C387.107 1282.33 430.305 1251.4 471.77 1290.12C517.006 1332.4 538.198 1396.09 570.34 1446.55C582.612 1465.83 597.365 1490.4 619.584 1501.16C632.94 1507.63 649.697 1508.07 664.4 1508.37C701.849 1509.15 735.527 1512.09 770.47 1526.37C824.469 1548.41 874.288 1583.55 915.096 1623.38C950.68 1658.12 992.498 1707.65 966.845 1758.1C947.131 1796.78 905.289 1821.31 874.444 1851.36C840.093 1884.8 816.945 1926.16 805.634 1971.58C794.66 2015.77 787.259 2064.23 740.636 2087.52C724.643 2095.5 703.935 2103.85 686.234 2106.84C657.048 2111.68 628.326 2118.75 600.355 2128Z" stroke="white"/>
<path fill-rule="evenodd" clip-rule="evenodd" d="M600.777 2095.95C540.227 2105.06 477.09 2106.07 429.368 2063.76C407.104 2044.01 391.287 2019.05 376.956 1993.81C366.411 1975.24 357.517 1956.06 340.23 1942.19C324.224 1929.34 305.639 1919.57 289.215 1907.16C267.448 1890.8 248.606 1871.21 233.411 1849.17C195.396 1793.9 177.616 1726.68 171.449 1662.36C168.451 1631.23 166.891 1597.45 175.062 1566.53C182.946 1536.66 195.412 1507.13 209.948 1479.67C240.819 1421.29 286.028 1370.7 343.187 1334.03C382.393 1308.88 420.515 1295.28 460.287 1327.85C505.119 1364.56 529.855 1422.13 558.951 1469.58C578.908 1502.12 598.47 1538.59 640.879 1544.67C674.623 1549.51 706.652 1553.44 738.549 1565.97C785.597 1584.61 828.217 1612.01 863.878 1646.56C896.367 1678.15 923.936 1718.12 906.583 1763.31C892.811 1799.12 861.957 1826.9 839.898 1858.18C815.261 1893.04 801.678 1931.35 790.755 1971.68C780.9 2007.93 765.757 2042.06 733.605 2065.49C727.035 2070.28 719.882 2075.32 712.532 2079.02C703.153 2083.73 693.857 2083.37 683.345 2084.29C655.603 2086.71 628.182 2091.84 600.777 2095.95Z" stroke="white"/>
<path fill-rule="evenodd" clip-rule="evenodd" d="M595.828 2060.61C538.314 2059.84 483.959 2046.73 439.138 2010.82C419.964 1995.47 404.17 1977.14 386.601 1960.25C372.436 1946.65 359.275 1933.8 347.603 1918.16C319.965 1881.07 284.2 1850.92 259.588 1811.5C226.686 1758.88 208.499 1698.6 201.228 1638.78C197.674 1609.58 196.432 1579.41 200.446 1549.86C203.893 1524.48 215.993 1500.18 228.372 1477.63C252.621 1433.44 287.087 1390.53 330.691 1361.84C426.824 1298.58 496.717 1423.3 537.648 1487.32C556.476 1516.76 578.283 1561.74 615.578 1573.8C642.22 1582.42 669.316 1587.67 695.136 1598.77C764.478 1628.59 846.035 1689.13 835.177 1769.8C830.538 1804.32 811.693 1835.78 799.042 1868.01C786.013 1901.19 778.749 1935.43 770.779 1969.92C763.335 2002.16 752.74 2027.85 724.337 2048.66C710.773 2058.62 694.535 2057.74 677.895 2058.62C650.561 2060.07 623.071 2060.96 595.828 2060.61Z" stroke="white"/>
<path fill-rule="evenodd" clip-rule="evenodd" d="M588.461 2028.44C501.65 2015.47 406.876 1967.34 356.46 1896.57C297.155 1813.31 247.215 1723.12 232.858 1623.65C226.202 1577.54 222.926 1527.02 244.695 1483.5C261.251 1450.39 285.999 1411.92 320.803 1393.69C405.932 1349.1 473.7 1448.28 513.084 1504.79C534.286 1535.21 554.946 1573.94 585.908 1596.87C603.86 1610.17 627.607 1616.96 647.323 1627.7C707.072 1660.25 755.263 1713.83 763.882 1780.57C767.863 1811.43 762.938 1842.51 759.023 1873.14C755.017 1904.49 752.842 1936.23 747.252 1967.38C742.787 1992.25 735.227 2021.56 707.146 2030.72C671.76 2042.27 623.913 2033.72 588.461 2028.44Z" stroke="white"/>
<path fill-rule="evenodd" clip-rule="evenodd" d="M574.515 1996.88C492.898 1977.98 413.285 1937.95 364.56 1870.67C338.724 1834.98 320.889 1793.56 303.267 1753.79C283.296 1708.72 267.794 1661.62 260.105 1613.51C250.526 1553.62 241.892 1456.62 313.898 1425.33C385.369 1394.27 448.626 1472.75 484.674 1519.16C507.767 1548.92 528.962 1580.76 554.207 1609.19C567.894 1624.61 583.708 1636.49 599.76 1649.53C644.237 1685.59 679.448 1736.99 698.244 1789.38C716.465 1840.16 724.532 1902.98 718.511 1956.58C715.923 1979.71 707.19 1996.24 682.364 2003.23C647.852 2012.93 608.23 2004.69 574.515 1996.88Z" stroke="white"/>
<path fill-rule="evenodd" clip-rule="evenodd" d="M552.533 1965.52C480.672 1946.75 415.036 1906.25 371.907 1847.17C323.557 1780.95 296.691 1695.68 283.029 1617.3C275.773 1575.64 256.097 1485.36 312.407 1464.13C368.716 1442.9 424.207 1504.28 454.755 1539.61C491.774 1582.49 527.516 1628.72 560.731 1674.9C589.609 1715.02 619.134 1757.83 641.435 1801.29C654.087 1825.8 664.416 1851.33 672.302 1877.58C678.094 1897.02 686.733 1921.73 682.422 1942.11C671.533 1993.52 586.893 1974.5 552.533 1965.52Z" stroke="white"/>
<path fill-rule="evenodd" clip-rule="evenodd" d="M531.015 1926.82C395.116 1885.62 328.279 1755.09 304.983 1629.41C299.575 1600.2 280.078 1518.33 321.591 1502.01C361.841 1486.19 409.575 1536.5 432.191 1560.05C502.269 1633.04 554.229 1723.21 605.705 1808.66C621.772 1835.33 656.639 1883.43 640.555 1916.51C623.06 1952.43 559.194 1935.35 531.015 1926.82Z" stroke="white"/>
<path fill-rule="evenodd" clip-rule="evenodd" d="M504.858 1884.62C404.779 1848.79 347.38 1744.58 328.457 1648.77C323.827 1625.3 309.412 1565.7 337.34 1547.92C363.174 1531.48 400.608 1570.73 415.484 1585.41C448.608 1618.11 475.895 1656.85 502.124 1695.13C526.39 1730.52 551.264 1766.3 571.787 1803.54C582.591 1823.15 605.642 1859.94 588.961 1882.23C571.016 1906.23 527.08 1892.57 504.858 1884.62Z" stroke="white"/>
<path fill-rule="evenodd" clip-rule="evenodd" d="M475.618 1838.11C410.263 1810.81 367.823 1737.67 353.72 1673.15C349.934 1655.79 340.11 1618.27 357.564 1603.62C373.638 1590.14 397.203 1611.87 408.086 1621.51C456.324 1664.26 499.413 1726.85 525.877 1784.19C532.53 1798.61 545.59 1824.53 532.16 1839.36C518.37 1854.58 490.624 1844.39 475.618 1838.11Z" stroke="white"/>
<path fill-rule="evenodd" clip-rule="evenodd" d="M448.165 1788.78C415.712 1773.39 391.227 1733.18 383.433 1699.86C377.952 1676.41 382.687 1648.23 410.936 1668.66C438.969 1688.96 464.574 1726.63 475.925 1758.55C484.581 1782.91 476.041 1802 448.165 1788.78Z" stroke="white"/>
<path fill-rule="evenodd" clip-rule="evenodd" d="M1679.29 1465.62C1719.87 1529 1753.36 1600.65 1787.41 1668.22C1837.15 1766.96 1885.55 1867.15 1922.61 1970.9C1942.47 2026.53 1971.1 2098.6 1955.54 2158.29C1949.86 2180.11 1932.65 2200.01 1921.48 2219.58C1906.06 2246.56 1891.41 2273.94 1876.73 2301.27C1847.3 2356.09 1818.17 2411.08 1786.85 2464.97C1771.76 2490.91 1752.76 2516.09 1739.9 2543.1C1732.37 2558.88 1735.89 2577.77 1736.37 2594.64C1737.47 2633.71 1739.58 2672.75 1741.36 2711.8C1743.55 2759.56 1745.87 2807.43 1745.01 2855.24C1744.61 2876.81 1748.65 2929.62 1729.05 2941.49C1718.5 2947.88 1699.47 2932.83 1690.66 2925.85C1674.48 2913.04 1659.89 2898.31 1645.46 2883.78C1612.07 2850.17 1580.28 2814.48 1542.98 2784.6C1523.81 2769.25 1500.39 2749.14 1474.22 2759.16C1447.78 2769.28 1424.89 2786.8 1398.55 2797.48C1368.23 2809.79 1336.69 2814.9 1304.54 2820.71C1280.78 2825.01 1259.73 2835.03 1237.82 2844.45C1213.61 2854.86 1189.2 2865.64 1163.67 2872.87C1146.8 2877.65 1116.46 2885.36 1105.78 2868.65C1090.6 2844.9 1102.89 2800.38 1107.37 2773.31C1113.54 2735.91 1121.4 2698.78 1128.17 2661.47C1133.09 2634.39 1138.49 2607.22 1139.07 2579.68C1140 2535.3 1136.79 2490.77 1133.8 2446.5C1128.27 2364.54 1120.77 2283.16 1120.77 2200.92C1120.77 2128.86 1208.72 1962.35 1224.21 1923.38C1255.12 1845.58 1284.43 1765.71 1325.56 1692.09C1336.7 1672.18 1351.54 1641.52 1374.46 1631.05C1388.59 1624.58 1396.75 1627.55 1405.85 1612.3C1418.27 1591.5 1423.15 1564.85 1428.7 1541.82C1437.65 1504.73 1445.22 1467.36 1453.32 1430.1C1469.66 1354.75 1488.15 1279.91 1505.93 1204.87C1511.31 1182.18 1512.5 1154.73 1521.97 1133.11C1528.05 1119.17 1535.71 1120.61 1544.95 1131.4C1561.16 1150.33 1570.17 1176.86 1579.42 1199.22C1592.97 1231.98 1605.05 1265.28 1616.97 1298.59C1628.89 1331.9 1640.43 1365.38 1652.38 1398.71C1660.24 1420.73 1666.63 1445.83 1679.29 1465.62Z" stroke="white"/>
<path fill-rule="evenodd" clip-rule="evenodd" d="M1670.37 1517.78C1711.03 1584.82 1743.42 1659.24 1775.02 1730.98C1815.49 1822.8 1853.42 1916.7 1878.71 2013.45C1893.56 2070.25 1909.95 2137.27 1892.93 2195.31C1886.85 2216.02 1873.2 2231.49 1861.15 2249.24C1847.4 2269.47 1834.8 2290.48 1822.4 2311.49C1796.87 2354.74 1772.22 2398.44 1748.43 2442.61C1735.78 2466 1718.84 2491.74 1714.46 2518.17C1710.96 2539.18 1716.02 2563.04 1717.49 2584.15C1720.13 2622.15 1722.86 2660.15 1725.18 2698.17C1727.85 2742.04 1730.32 2786.04 1729.89 2830C1729.65 2854.5 1733.59 2896.57 1716.88 2913.9C1702.3 2929.02 1649.57 2873.97 1639.55 2864.29C1608.27 2834.06 1578.48 2802.27 1545.03 2774.13C1525.31 2757.5 1501.32 2737.25 1475.17 2730.24C1452.89 2724.27 1427.51 2735.79 1406.91 2742.59C1381.11 2751.1 1354.37 2757.96 1329.11 2767.84C1306.61 2776.64 1286.56 2790.65 1266.11 2802.95C1243.6 2816.48 1220.73 2830.19 1196.18 2840.23C1181.08 2846.39 1155.78 2856.57 1141.38 2844.34C1124.78 2830.21 1135.63 2786.65 1137.99 2768.75C1142.86 2732.42 1150.09 2696.38 1156.57 2660.3C1167.32 2600.39 1176.72 2543.26 1174.47 2482.25C1171.53 2402.8 1164.61 2323.42 1160.78 2243.98C1159.35 2214.64 1156.47 2184.84 1158.02 2155.48C1158.92 2138.65 1164.34 2125.83 1176.58 2116.04C1193.28 2102.68 1202.53 2071.89 1212.11 2050.47C1227.04 2017.08 1240.93 1983.27 1255 1949.55C1285.91 1875.54 1315.69 1800.1 1355.66 1729.9C1368.3 1707.69 1382.39 1682.27 1403.28 1665.84C1414.92 1656.67 1426.14 1658.98 1438.52 1653.39C1454.8 1645.98 1462.15 1621.63 1467.47 1607.07C1477.76 1578.97 1484.66 1549.72 1491.12 1520.69C1505.73 1455.02 1515.34 1389.19 1522.42 1322.45C1524.06 1306.81 1529.76 1245.22 1557.21 1277.56C1587.54 1313.3 1602.41 1364.91 1619.5 1406.98C1634.87 1444.89 1649.17 1482.82 1670.37 1517.78Z" stroke="white"/>
<path fill-rule="evenodd" clip-rule="evenodd" d="M1662.85 1610.43C1698.62 1673.45 1725.31 1743.26 1750.83 1811.13C1781.81 1893.49 1809.42 1977.92 1824.89 2064.3C1834.6 2118.56 1842.06 2178.39 1825.93 2232.28C1814.91 2269.09 1785.14 2297.56 1764.66 2329.89C1744.18 2362.22 1724.95 2395.85 1708.93 2430.49C1698.98 2451.99 1688.96 2475.12 1690.28 2499.04C1693.46 2557.21 1701.05 2615.3 1704.73 2673.53C1707.2 2712.05 1709.22 2750.65 1708.62 2789.29C1708.25 2812.59 1709.73 2844.6 1696.8 2865.22C1682.5 2888.02 1560.38 2766.62 1546.63 2755.15C1512.17 2726.38 1466.43 2691.54 1417.41 2697.1C1370.56 2702.43 1335.58 2725.48 1298.86 2751.56C1277.98 2766.36 1222.19 2813.83 1195.03 2796.24C1179.5 2786.19 1184.88 2753.07 1185.94 2737.33C1188.02 2706.32 1192.5 2675.48 1196.39 2644.63C1202.03 2599.66 1210.73 2553.44 1213.29 2508.27C1215.06 2476.81 1212.69 2445.17 1212.64 2413.66C1212.57 2368.48 1212.93 2323.3 1213.36 2278.12C1213.72 2240.18 1213.36 2201.93 1217.2 2164.12C1219.56 2140.62 1224.87 2122.78 1239.87 2105.93C1252.92 2091.26 1260.56 2069.13 1268.86 2050.43C1282.55 2019.55 1295.25 1988.27 1308.14 1957.09C1335.16 1891.8 1361.61 1825.77 1395.37 1763.28C1410.77 1734.75 1432.33 1686.79 1469.68 1680.1C1483.14 1677.69 1488.96 1675.91 1496.62 1663.45C1507.48 1645.76 1512.38 1624.57 1516.64 1604.72C1526.57 1558.45 1525.08 1510.84 1534.9 1464.64C1538.94 1445.83 1547.67 1421.27 1567.66 1442.75C1591.04 1467.81 1603.89 1504.29 1618.33 1534.31C1625.54 1549.3 1632.28 1564.73 1641.08 1578.97C1647.86 1589.9 1656.55 1599.25 1662.85 1610.43Z" stroke="white"/>
<path fill-rule="evenodd" clip-rule="evenodd" d="M1651.68 1729.79C1680.74 1788.01 1701.86 1851.24 1720.9 1913.34C1742.02 1982.31 1759.52 2052.94 1766.96 2124.51C1772.12 2173.93 1773.64 2226.58 1757.86 2274.54C1747.87 2304.87 1726.87 2325.44 1709.26 2351.54C1682.64 2390.93 1661.55 2433.55 1666.69 2480.88C1672.43 2533.94 1676.74 2587.17 1679.61 2640.57C1681.34 2672.79 1682.64 2705.12 1681.44 2737.38C1680.68 2757.77 1679.4 2784.04 1669.66 2801.78C1656.6 2825.52 1557.27 2736.36 1542.8 2725.24C1506.89 2697.68 1469.22 2677.48 1424.74 2665.67C1388.44 2656.04 1359.9 2675.71 1332.75 2696C1315.89 2708.62 1273.48 2749.38 1251.58 2736.62C1239.51 2729.62 1240.13 2706.55 1239.51 2694.16C1238.35 2670.55 1239.56 2646.83 1240.1 2623.22C1240.92 2588.35 1235.27 2551.24 1239.82 2516.67C1249.89 2440.05 1258.61 2363.63 1265.51 2286.54C1269.31 2244.05 1272.76 2201.29 1280.09 2159.18C1282.72 2144.06 1285.51 2128.44 1291.47 2114.12C1295.29 2104.9 1301.81 2099.88 1307.15 2092.1C1332.6 2055.02 1345.7 2006.61 1362.01 1964.85C1383.69 1909.32 1405.04 1853.5 1430.65 1799.46C1444.12 1771.03 1459.6 1731.33 1487.1 1711.77C1495.41 1705.86 1502.05 1708.38 1510.04 1704.66C1519.25 1700.38 1522 1687.39 1524.57 1678.99C1530.4 1659.95 1539.22 1580.22 1573.43 1616.96C1589.72 1634.49 1600.18 1656.83 1612.98 1676.59C1617.62 1683.75 1622.29 1690.72 1628.55 1696.69C1639.04 1706.67 1645.03 1716.5 1651.68 1729.79Z" stroke="white"/>
</g>
</g>
</svg>
