<svg width="18" height="17" viewBox="0 0 18 17" fill="none" xmlns="http://www.w3.org/2000/svg">
<g clip-path="url(#clip0_33_137)">
<path d="M16.9393 4.99396C16.9393 4.99396 16.7768 3.84628 16.2761 3.34235C15.6421 2.6791 14.9333 2.67585 14.6082 2.63684C12.2803 2.46777 8.7853 2.46777 8.7853 2.46777H8.7788C8.7788 2.46777 5.28376 2.46777 2.9559 2.63684C2.63079 2.67585 1.92202 2.6791 1.28804 3.34235C0.787355 3.84628 0.628047 4.99396 0.628047 4.99396C0.628047 4.99396 0.458984 6.3432 0.458984 7.6892V8.95066C0.458984 10.2967 0.624795 11.6459 0.624795 11.6459C0.624795 11.6459 0.787355 12.7936 1.28479 13.2975C1.91877 13.9608 2.75108 13.938 3.12172 14.0095C4.45471 14.1363 8.78205 14.1753 8.78205 14.1753C8.78205 14.1753 12.2803 14.1688 14.6082 14.003C14.9333 13.964 15.6421 13.9608 16.2761 13.2975C16.7768 12.7936 16.9393 11.6459 16.9393 11.6459C16.9393 11.6459 17.1051 10.2999 17.1051 8.95066V7.6892C17.1051 6.3432 16.9393 4.99396 16.9393 4.99396ZM7.06217 10.482V5.8035L11.5586 8.15087L7.06217 10.482Z" fill="#0C0C0C"/>
</g>
<defs>
<clipPath id="clip0_33_137">
<rect width="16.6461" height="16.6461" fill="white" transform="translate(0.458984)"/>
</clipPath>
</defs>
</svg>
